<?xml version="1.0" encoding="UTF-8" standalone="no"?>
<!-- Created with Inkscape (http://www.inkscape.org/) -->

<svg
   version="1.1"
   id="svg2"
   xml:space="preserve"
   width="321.26001"
   height="207.87466"
   viewBox="0 0 321.26001 207.87466"
   sodipodi:docname="watermark.svg"
   inkscape:version="1.1.2 (0a00cf5339, 2022-02-04)"
   xmlns:inkscape="http://www.inkscape.org/namespaces/inkscape"
   xmlns:sodipodi="http://sodipodi.sourceforge.net/DTD/sodipodi-0.dtd"
   xmlns="http://www.w3.org/2000/svg"
   xmlns:svg="http://www.w3.org/2000/svg"><defs
     id="defs6"><clipPath
       clipPathUnits="userSpaceOnUse"
       id="clipPath18"><path
         d="M 0,155.906 H 240.945 V 0 H 0 Z"
         id="path16" /></clipPath></defs><sodipodi:namedview
     id="namedview4"
     pagecolor="#ffffff"
     bordercolor="#666666"
     borderopacity="1.0"
     inkscape:pageshadow="2"
     inkscape:pageopacity="0.0"
     inkscape:pagecheckerboard="0"
     showgrid="false"
     inkscape:zoom="0.76728927"
     inkscape:cx="-81.45559"
     inkscape:cy="100.35329"
     inkscape:window-width="1400"
     inkscape:window-height="840"
     inkscape:window-x="0"
     inkscape:window-y="28"
     inkscape:window-maximized="1"
     inkscape:current-layer="g8" /><g
     id="g8"
     inkscape:groupmode="layer"
     inkscape:label="Time_3"
     transform="matrix(1.3333333,0,0,-1.3333333,0,207.87467)"><g
       id="g12"
       transform="matrix(2.2,0,0,2.2,-143.89326,-96.73602)"><g
         id="g14"
         clip-path="url(#clipPath18)"><g
           id="g20"
           transform="translate(162.0836,89.9796)"><path
             d="m 0,0 c 3.707,0 7.158,-1.666 9.47,-4.569 l 1.941,1.546 C 8.626,0.475 4.467,2.481 0,2.481 c -2.469,0 -4.908,-0.628 -7.056,-1.818 l 1.203,-2.171 C -4.073,-0.521 -2.049,0 0,0"
             style="fill:#ffffff;fill-opacity:1;fill-rule:nonzero;stroke:none"
             id="path22" /></g><g
           id="g24"
           transform="translate(161.5416,82.9454)"><path
             d="m 0,0 c 1.044,0 2.049,-0.294 2.904,-0.83 l -7.537,-7.537 c -0.528,0.841 -0.834,1.835 -0.834,2.9 C -5.467,-2.453 -3.015,0 0,0 m 0.542,-17.158 c -2.918,0 -5.598,1.039 -7.689,2.766 l 2.488,2.488 c 1.309,-0.951 2.92,-1.512 4.659,-1.512 v 2.481 c -1.053,0 -2.037,0.3 -2.873,0.818 L 6.506,-0.739 5.455,0.314 C 3.975,1.712 2.037,2.481 0,2.481 c -4.383,0 -7.949,-3.565 -7.949,-7.948 0,-1.751 0.569,-3.371 1.531,-4.685 l -2.468,-2.469 c -1.665,2.073 -2.668,4.7 -2.668,7.559 0,2.206 0.6,4.365 1.735,6.244 l -2.125,1.283 c -1.369,-2.266 -2.092,-4.869 -2.092,-7.527 0,-3.544 1.274,-6.794 3.385,-9.324 l -1.971,-1.971 c -0.71,-0.633 -1.617,-1.01 -2.566,-1.054 l -0.2,-0.005 c -2.295,0 -4.162,1.868 -4.162,4.163 v 6.782 c 0,5.542 -4.51,10.051 -10.052,10.051 -3.792,0 -7.098,-2.112 -8.81,-5.221 -1.712,3.109 -5.019,5.221 -8.811,5.221 -5.542,0 -10.05,-4.509 -10.05,-10.051 v -12.161 h 2.482 v 12.161 c 0,4.174 3.395,7.57 7.568,7.57 4.174,0 7.57,-3.396 7.57,-7.57 v -12.161 h 2.482 v 12.161 c 0,4.174 3.396,7.57 7.569,7.57 4.174,0 7.57,-3.396 7.57,-7.57 v -6.867 h 0.004 c 0.047,-3.624 3.005,-6.559 6.64,-6.559 0.106,0 0.21,0.002 0.315,0.007 1.437,0.067 2.804,0.621 3.91,1.536 l 0.027,-0.027 0.208,0.208 c 0.012,0.011 0.027,0.018 0.038,0.029 l -0.004,0.005 1.993,1.993 c 2.547,-2.173 5.841,-3.493 9.443,-3.493 3.666,0 7.17,1.366 9.866,3.847 l -1.679,1.826 c -2.238,-2.058 -5.145,-3.192 -8.187,-3.192"
             style="fill:#ffffff;fill-opacity:1;fill-rule:nonzero;stroke:none"
             id="path26" /></g><path
           d="m 96.129,64.289 h 2.482 v 21.139 h -2.482 z"
           style="fill:#ffffff;fill-opacity:1;fill-rule:nonzero;stroke:none"
           id="path28" /><g
           id="g30"
           transform="translate(83.3345,66.7603)"><path
             d="M 0,0 C -4.231,0 -7.673,3.442 -7.673,7.673 V 22.084 H 5.308 v 2.482 H -7.673 v 6.852 h -2.482 v -6.852 h -6.852 v -2.482 h 6.852 V 7.673 C -10.155,2.074 -5.6,-2.481 0,-2.481 l 6.831,0.004 -0.002,2.482 z"
             style="fill:#ffffff;fill-opacity:1;fill-rule:nonzero;stroke:none"
             id="path32" /></g><path
           d="m 96.129,88.856 h 2.482 v 2.472 h -2.482 z"
           style="fill:#ffffff;fill-opacity:1;fill-rule:nonzero;stroke:none"
           id="path34" /></g></g></g></svg>
